<svg xmlns="http://www.w3.org/2000/svg" xmlns:osb="http://www.openswatchbook.org/uri/2009/osb" xmlns:svg="http://www.w3.org/2000/svg" xmlns:xlink="http://www.w3.org/1999/xlink" id="svg2" width="192" height="192" version="1.1" viewBox="0 0 192 192"><defs id="defs4"><linearGradient id="linearGradient4675"><stop style="stop-color:#fff;stop-opacity:.1" id="stop4677" offset="0"/><stop style="stop-color:#fff;stop-opacity:0" id="stop4679" offset="1"/></linearGradient><linearGradient id="linearGradient6127" osb:paint="solid"><stop style="stop-color:#607d8b;stop-opacity:.16403785" id="stop6129" offset="0"/></linearGradient><linearGradient id="linearGradient9937"><stop style="stop-color:#eceff1;stop-opacity:1" id="stop9939" offset="0"/><stop style="stop-color:#cfd8dc;stop-opacity:1" id="stop9941" offset="1"/></linearGradient><linearGradient id="linearGradient9943" x1="96" x2="96" y1="4" y2="184" gradientUnits="userSpaceOnUse" xlink:href="#linearGradient9937"/><radialGradient id="radialGradient4681" cx="0" cy="96" r="96" fx="0" fy="96" gradientTransform="matrix(0,2,-2,0,192,0)" gradientUnits="userSpaceOnUse" xlink:href="#linearGradient4675"/><filter style="color-interpolation-filters:sRGB" id="filter3770"><feFlood id="feFlood3772" flood-color="#000" flood-opacity=".471" result="flood"/><feComposite id="feComposite3774" in="flood" in2="SourceGraphic" operator="out" result="composite1"/><feGaussianBlur id="feGaussianBlur3776" in="composite1" result="blur" stdDeviation="2"/><feOffset id="feOffset3778" dx="0" dy="0" result="offset"/><feComposite id="feComposite3780" in="offset" in2="SourceGraphic" operator="atop" result="composite2"/></filter><filter style="color-interpolation-filters:sRGB" id="filter4884"><feFlood id="feFlood4886" flood-color="#000" flood-opacity=".353" result="flood"/><feComposite id="feComposite4888" in="flood" in2="SourceGraphic" operator="in" result="composite1"/><feGaussianBlur id="feGaussianBlur4890" in="composite1" result="blur" stdDeviation="4"/><feOffset id="feOffset4892" dx="0" dy="0" result="offset"/><feComposite id="feComposite4894" in="offset" in2="SourceGraphic" operator="out" result="composite2"/></filter><filter style="color-interpolation-filters:sRGB" id="filter4985"><feFlood id="feFlood4987" flood-color="#000" flood-opacity=".353" result="flood"/><feComposite id="feComposite4989" in="flood" in2="SourceGraphic" operator="in" result="composite1"/><feGaussianBlur id="feGaussianBlur4991" in="composite1" result="blur" stdDeviation="2"/><feOffset id="feOffset4993" dx="0" dy="0" result="offset"/><feComposite id="feComposite4995" in="offset" in2="SourceGraphic" operator="out" result="composite2"/></filter><filter style="color-interpolation-filters:sRGB" id="filter5048"><feFlood id="feFlood5050" flood-color="#000" flood-opacity=".353" result="flood"/><feComposite id="feComposite5052" in="flood" in2="SourceGraphic" operator="in" result="composite1"/><feGaussianBlur id="feGaussianBlur5054" in="composite1" result="blur" stdDeviation="2"/><feOffset id="feOffset5056" dx="0" dy="0" result="offset"/><feComposite id="feComposite5058" in="offset" in2="SourceGraphic" operator="out" result="composite2"/></filter></defs><metadata id="metadata7"/><g id="layer2" style="display:inline"><rect style="fill:#90a4ae;fill-opacity:1;stroke:none;stroke-width:1.35000002;stroke-miterlimit:7;stroke-dasharray:none" id="rect3404" width="184" height="184" x="4" y="4" ry="16"/><path style="fill:#607d8b;fill-opacity:1;stroke:none;stroke-width:1.35000002;stroke-miterlimit:7;stroke-dasharray:none" id="rect3430" d="m 20,12 152,0 c 4.432,0 8,3.568 8,8 l 0,132 c 0,4.432 -3.568,8 -8,8 l -152,0 c -4.432,0 -8,-3.568 -8,-8 L 12,20 c 0,-4.432 3.568,-8 8,-8 z"/><g id="g9776" style="fill:#fff;fill-opacity:1"><path id="path4259" d="M 20,20 20,24.882812 40,32 20,39.117188 20,44 44,36 44,32 44,28 20,20 Z" style="font-style:normal;font-variant:normal;font-weight:700;font-stretch:normal;font-size:medium;line-height:125%;font-family:Sans;-inkscape-font-specification:'Sans Bold';letter-spacing:0;word-spacing:0;fill:#fff;fill-opacity:1;stroke:none;stroke-width:1px;stroke-linecap:butt;stroke-linejoin:miter;stroke-opacity:1"/><path id="path4343" d="m 48,52 20,0 0,-4 -20,0 z" style="fill:#fff;fill-opacity:1;fill-rule:evenodd;stroke:none;stroke-width:1px;stroke-linecap:butt;stroke-linejoin:miter;stroke-opacity:1"/></g><path style="fill:#a4c639" id="path2994" d="m 38.992188,60 c -1.056873,0.0078 -2.126268,0.271426 -3.115235,0.818359 -3.161808,1.753354 -4.305642,5.743219 -2.548828,8.908203 L 47.830078,95.884766 C 32.033549,104.8921 19.513548,118.24662 12,134.08398 L 12,152 c 0,1.108 0.223203,2.16139 0.626953,3.11914 0.40375,0.95775 0.987938,1.81997 1.710938,2.54297 0.723,0.723 1.585218,1.30719 2.542968,1.71094 C 17.838609,159.7768 18.892,160 20,160 l 152,0 c 1.108,0 2.16139,-0.2232 3.11914,-0.62695 0.95775,-0.40375 1.81997,-0.98794 2.54297,-1.71094 0.723,-0.723 1.30719,-1.58522 1.71094,-2.54297 C 179.7768,154.16139 180,153.108 180,152 l 0,-17.91211 c -7.51447,-15.83905 -20.0346,-29.19487 -35.82617,-38.203124 l 14.49414,-26.158204 c 1.76346,-3.164985 0.61887,-7.154849 -2.55274,-8.908203 -3.16497,-1.750188 -7.15363,-0.602484 -8.91015,2.5625 L 132.3457,90.191406 C 121.19488,85.752351 108.91008,83.28125 95.996094,83.28125 c -12.914287,0 -25.198492,2.471392 -36.34961,6.910156 L 44.789062,63.380859 C 43.581054,61.204933 41.317307,59.982811 38.992188,60 Z m 14.654296,62.60547 c 3.791924,0 6.865235,3.07331 6.865235,6.86523 -2.83e-4,3.79221 -3.073602,6.86719 -6.865235,6.86719 -3.791633,0 -6.867187,-3.07527 -6.867187,-6.86719 0,-3.79163 3.075264,-6.86523 6.867187,-6.86523 z m 84.703126,0 c 3.79194,0 6.86719,3.07331 6.86719,6.86523 0,3.79221 -3.07525,6.86719 -6.86719,6.86719 -3.79163,0 -6.86523,-3.07527 -6.86523,-6.86719 0,-3.79163 3.07332,-6.86523 6.86523,-6.86523 z"/><path style="opacity:1;fill:#fff;fill-opacity:1;fill-rule:evenodd;stroke:none;stroke-width:1.10000002;stroke-miterlimit:7;stroke-dasharray:none;filter:url(#filter5048)" id="rect5028" d="M 20,8 C 13.352,8 8,13.352 8,20 l 0,132 c 0,6.648 5.352,12 12,12 l 152,0 c 6.648,0 12,-5.352 12,-12 L 184,20 C 184,13.352 178.648,8 172,8 L 20,8 Z m 0,4 152,0 c 4.432,0 8,3.568 8,8 l 0,132 c 0,4.432 -3.568,8 -8,8 l -152,0 c -4.432,0 -8,-3.568 -8,-8 L 12,20 c 0,-4.432 3.568,-8 8,-8 z"/><path style="fill:url(#linearGradient9943);fill-opacity:1;stroke:none;stroke-width:1.35000002;stroke-miterlimit:7;stroke-dasharray:none" id="rect3404-5" d="M 20,4 C 11.136,4 4,11.136 4,20 l 0,148 c 0,8.864 7.136,16 16,16 l 152,0 c 8.864,0 16,-7.136 16,-16 L 188,20 C 188,11.136 180.864,4 172,4 L 20,4 Z m 0,8 152,0 c 4.432,0 8,3.568 8,8 l 0,132 c 0,4.432 -3.568,8 -8,8 l -152,0 c -4.432,0 -8,-3.568 -8,-8 L 12,20 c 0,-4.432 3.568,-8 8,-8 z"/></g><g id="layer3" style="display:inline"><rect style="fill:url(#radialGradient4681);fill-opacity:1;fill-rule:evenodd;stroke:none;stroke-width:1.35000002;stroke-miterlimit:7;stroke-dasharray:none" id="rect4673" width="192" height="192" x="0" y="0"/></g></svg>